#!OML:ASF G:\JayActor3\Patient Classification 1\Patient 1\Session 6\male.ASF
:FULLY-SPECIFIED
:DEGREES
931
root 0.45096 16.7293 8.74684 176.131 -40.6869 -172.601
lowerback 2.53209 1.41966 -1.26456
upperback 3.5994 1.7777 -0.650061
thorax 2.2557 0.817306 0.0296649
lowerneck 8.41316 13.0901 10.702
upperneck -11.645 18.3561 -4.98918
head -3.42437 8.84062 -3.90078
rclavicle -9.56154e-014 1.27222e-014
rhumerus -40.9938 -21.0656 -74.9405
rradius 34.2965
rwrist 1.60433
rhand -11.9552 -7.33074
rfingers 7.12502
rthumb 14.1002 -36.8324
lclavicle -9.56154e-014 1.27222e-014
lhumerus -17.2712 2.11966 85.8202
lradius 21.8858
lwrist 14.7353
lhand -16.1222 12.6514
lfingers 7.12502
lthumb 10.0823 42.3899
rfemur -19.3545 1.67945 16.3519
rtibia 31.2076
rfoot -15.0224 -17.5583
rtoes 4.72454
lfemur -0.124472 4.84421 -18.9327
ltibia 15.0953
lfoot -39.8474 39.7341
ltoes 18.6129
932
root 0.462668 16.7242 8.71938 176.282 -40.5477 -172.739
lowerback 2.51891 1.40579 -1.25418
upperback 3.59461 1.75976 -0.639003
thorax 2.25826 0.808634 0.0355823
lowerneck 8.37049 13.1258 10.64
upperneck -11.5768 18.3967 -4.92764
head -3.40538 8.86157 -3.86897
rclavicle 7.15625e-014 -4.69132e-014
rhumerus -41.0661 -21.1806 -74.8657
rradius 34.2412
rwrist 1.64125
rhand -11.9497 -7.3627
rfingers 7.12502
rthumb 14.1055 -36.8639
lclavicle 7.15625e-014 -4.69132e-014
lhumerus -17.411 2.12504 86.0092
lradius 21.8152
lwrist 14.6701
lhand -16.1115 12.6432
lfingers 7.12502
lthumb 10.0925 42.3811
rfemur -19.3092 1.86084 16.3255
rtibia 31.1226
rfoot -15.1976 -17.1287
rtoes 4.32458
lfemur -0.145701 4.91126 -18.9322
ltibia 15.1565
lfoot -40.079 39.5992
ltoes 18.8377
933
root 0.474362 16.7187 8.69021 176.431 -40.44 -172.89
lowerback 2.50523 1.38957 -1.25333
upperback 3.59399 1.73847 -0.627434
thorax 2.26514 0.797936 0.0474217
lowerneck 8.37756 13.1519 10.5793
upperneck -11.5599 18.4292 -4.88643
head -3.40839 8.87774 -3.8498
rclavicle -1.61016e-014 3.65764e-014
rhumerus -41.1364 -21.2936 -74.7836
rradius 34.1708
rwrist 1.67445
rhand -11.9562 -7.38759
rfingers 7.12502
rthumb 14.0992 -36.8893
lclavicle -1.61016e-014 3.65764e-014
lhumerus -17.5559 2.1173 86.1918
lradius 21.7636
lwrist 14.6111
lhand -16.0848 12.641
lfingers 7.12502
lthumb 10.1184 42.3777
rfemur -19.2458 2.04079 16.2841
rtibia 31.0276
rfoot -15.3795 -16.6712
rtoes 4.06846
lfemur -0.163234 4.9728 -18.939
ltibia 15.2362
lfoot -40.3009 39.4451
ltoes 19.0558
934
root 0.486903 16.7133 8.65991 176.572 -40.3614 -173.033
lowerback 2.49582 1.37143 -1.24802
upperback 3.59292 1.71458 -0.612886
thorax 2.26923 0.786048 0.0597242
lowerneck 8.39276 13.1745 10.5284
upperneck -11.5463 18.458 -4.85656
head -3.41202 8.89242 -3.83581
rclavicle 6.36111e-015 -4.29375e-014
rhumerus -41.2048 -21.4269 -74.6885
rradius 34.0832
rwrist 1.73029
rhand -11.9584 -7.38311
rfingers 7.12502
rthumb 14.0971 -36.8849
lclavicle 6.36111e-015 -4.29375e-014
lhumerus -17.6997 2.09532 86.3638
lradius 21.7214
lwrist 14.5555
lhand -16.046 12.6383
lfingers 7.12502
lthumb 10.1557 42.3732
rfemur -19.1766 2.22347 16.2469
rtibia 30.9238
rfoot -15.57 -16.2377
rtoes 4.01251
lfemur -0.191739 5.02778 -18.9355
ltibia 15.3352
lfoot -40.5082 39.2765
ltoes 19.2648
935
root 0.499917 16.7079 8.6285 176.712 -40.3074 -173.185
lowerback 2.49311 1.3514 -1.25037
upperback 3.59321 1.68784 -0.59644
thorax 2.27073 0.772479 0.078115
lowerneck 8.41204 13.1911 10.4979
upperneck -11.5303 18.4788 -4.85581
head -3.41135 8.9046 -3.83255
rclavicle 3.77691e-014 -2.46493e-014
rhumerus -41.2688 -21.5664 -74.5818
rradius 33.9807
rwrist 1.80001
rhand -11.9588 -7.35251
rfingers 7.12502
rthumb 14.0967 -36.8544
lclavicle 3.77691e-014 -2.46493e-014
lhumerus -17.8424 2.07986 86.5254
lradius 21.6845
lwrist 14.4975
lhand -15.9909 12.6361
lfingers 7.12502
lthumb 10.2089 42.3684
rfemur -19.1008 2.38916 16.2014
rtibia 30.8235
rfoot -15.7652 -15.8475
rtoes 4.11618
lfemur -0.215307 5.06621 -18.9377
ltibia 15.4383
lfoot -40.7176 39.0968
ltoes 19.4779
